<svg width="2048" height="2048" viewBox="0 0 2048 2048" fill="none" xmlns="http://www.w3.org/2000/svg">
<path fill-rule="evenodd" clip-rule="evenodd" d="M66 751.158L1023.59 1237.86L1974.15 752.915L1021.83 275L66 751.158ZM1023.59 849.553L1331.07 698.447L1023.59 542.07L716.106 698.447L1023.59 849.553ZM1025.34 1246.62V1758L1943.5 1272.22L1975.9 761.672L1025.34 1246.62ZM1518.26 1241.51C1507.71 1265.05 1487.26 1278.79 1472.6 1272.22C1457.94 1265.64 1454.61 1241.23 1465.17 1217.7C1475.72 1194.17 1496.16 1180.42 1510.83 1187C1525.49 1193.57 1528.82 1217.98 1518.26 1241.51ZM1399.24 1368.37C1373.07 1426.72 1322.87 1461.02 1287.12 1444.99C1251.37 1428.95 1243.6 1368.65 1269.77 1310.3C1295.94 1251.95 1346.14 1217.65 1381.89 1233.69C1417.64 1249.72 1425.41 1310.02 1399.24 1368.37ZM273.535 1009.92L512.493 1127.64V1189.14L273.535 1071.42V1009.92ZM273.535 1120.61L512.493 1238.33V1299.83L273.535 1182.11V1120.61ZM512.493 1347.27L273.535 1229.55V1291.05L512.493 1408.77V1347.27Z" fill="url(#paint0_linear_14_24)"/>
<defs>
<linearGradient id="paint0_linear_14_24" x1="908" y1="166" x2="1382" y2="1271.5" gradientUnits="userSpaceOnUse">
<stop stop-color="#EB0C7F"/>
<stop offset="1" stop-color="#340380"/>
</linearGradient>
</defs>
</svg>
